<svg xmlns="http://www.w3.org/2000/svg" xmlns:xlink="http://www.w3.org/1999/xlink" width="26.324" height="23.458" viewBox="0 0 26.324 23.458">
  <defs>
    <clipPath id="clip-path">
      <path id="Path_785" data-name="Path 785" d="M79-72h26.324V-95.459H79Z" fill="#c32526"/>
    </clipPath>
    <clipPath id="clip-path-2">
      <rect id="Rectangle_108" data-name="Rectangle 108" width="28" height="24" transform="translate(78 -96)" fill="#c32526"/>
    </clipPath>
    <clipPath id="clip-path-3">
      <path id="Path_784" data-name="Path 784" d="M93.8-94.514,105.09-74.667a1.714,1.714,0,0,1-.03,1.778,1.9,1.9,0,0,1-1.616.889H80.879a1.9,1.9,0,0,1-1.615-.889,1.714,1.714,0,0,1-.03-1.778L90.518-94.514a1.879,1.879,0,0,1,1.644-.945,1.879,1.879,0,0,1,1.642.945" fill="#c32526" clip-rule="evenodd"/>
    </clipPath>
    <clipPath id="clip-path-4">
      <path id="Path_783" data-name="Path 783" d="M79-72h27V-96H79Z" fill="#c32526"/>
    </clipPath>
  </defs>
  <g id="Group_936" data-name="Group 936" transform="translate(-79 95.459)" clip-path="url(#clip-path)">
    <g id="Group_935" data-name="Group 935" style="isolation: isolate">
      <g id="Group_934" data-name="Group 934" clip-path="url(#clip-path-2)">
        <g id="Group_933" data-name="Group 933" clip-path="url(#clip-path-3)">
          <g id="Group_932" data-name="Group 932" clip-path="url(#clip-path-4)">
            <path id="Path_782" data-name="Path 782" d="M74-100.459h36.324V-67H74Z" fill="#c32526"/>
          </g>
        </g>
      </g>
    </g>
  </g>
</svg>
