<svg xmlns="http://www.w3.org/2000/svg" width="24.63" height="28.149" viewBox="0 0 24.63 28.149">
  <path id="building" d="M7.037,8.137v-2.2a.662.662,0,0,1,.66-.66H9.9a.662.662,0,0,1,.66.66v2.2a.662.662,0,0,1-.66.66H7.7A.662.662,0,0,1,7.037,8.137Zm7.7.66h2.2a.662.662,0,0,0,.66-.66v-2.2a.662.662,0,0,0-.66-.66h-2.2a.662.662,0,0,0-.66.66v2.2A.662.662,0,0,0,14.734,8.8ZM7.7,14.075H9.9a.662.662,0,0,0,.66-.66v-2.2a.662.662,0,0,0-.66-.66H7.7a.662.662,0,0,0-.66.66v2.2A.662.662,0,0,0,7.7,14.075Zm7.037,0h2.2a.662.662,0,0,0,.66-.66v-2.2a.662.662,0,0,0-.66-.66h-2.2a.662.662,0,0,0-.66.66v2.2A.662.662,0,0,0,14.734,14.075Zm-4.178,4.618v-2.2a.662.662,0,0,0-.66-.66H7.7a.662.662,0,0,0-.66.66v2.2a.662.662,0,0,0,.66.66H9.9A.662.662,0,0,0,10.556,18.693Zm4.178.66h2.2a.662.662,0,0,0,.66-.66v-2.2a.662.662,0,0,0-.66-.66h-2.2a.662.662,0,0,0-.66.66v2.2A.662.662,0,0,0,14.734,19.352Zm9.9,6.817v1.979H0V26.17a.662.662,0,0,1,.66-.66H1.732V1.319A1.316,1.316,0,0,1,3.051,0H21.579A1.316,1.316,0,0,1,22.9,1.319V25.51h1.072A.662.662,0,0,1,24.63,26.17Zm-20.26-.715h6.185V21.772a.662.662,0,0,1,.66-.66h2.2a.662.662,0,0,1,.66.66v3.684H20.26V2.694L4.4,2.639Z" fill="#fff"/>
</svg>
