<svg xmlns="http://www.w3.org/2000/svg" xmlns:xlink="http://www.w3.org/1999/xlink" width="22" height="22" viewBox="0 0 22 22">
  <defs>
    <clipPath id="clip-path">
      <path id="Path_755" data-name="Path 755" d="M498-92a11,11,0,0,0-10.163,6.79,11,11,0,0,0,2.384,11.988,11,11,0,0,0,11.988,2.385A11,11,0,0,0,509-81a11,11,0,0,0-3.221-7.778A11,11,0,0,0,498-92Zm2.528,15.528-3.912-2.843a.535.535,0,0,1-.217-.431V-87.21a.534.534,0,0,1,.532-.532h2.129a.534.534,0,0,1,.532.532v6.1l2.82,2.056a.532.532,0,0,1,.116.742l-1.25,1.721a.536.536,0,0,1-.742.115Z" fill="#004e74"/>
    </clipPath>
    <clipPath id="clip-path-2">
      <path id="Path_754" data-name="Path 754" d="M-222,375H1218V-649H-222Z" fill="#004e74"/>
    </clipPath>
  </defs>
  <g id="Group_903" data-name="Group 903" transform="translate(-487 92)" clip-path="url(#clip-path)">
    <g id="Group_902" data-name="Group 902" clip-path="url(#clip-path-2)">
      <path id="Path_753" data-name="Path 753" d="M482-97h32v32H482Z" fill="#004e74"/>
    </g>
  </g>
</svg>
