<?xml version="1.0" encoding="utf-8"?>
<!-- Generator: Adobe Illustrator 24.3.0, SVG Export Plug-In . SVG Version: 6.00 Build 0)  -->
<svg version="1.1" id="Layer_1" xmlns="http://www.w3.org/2000/svg" xmlns:xlink="http://www.w3.org/1999/xlink" x="0px" y="0px"
	 viewBox="0 0 28 28" style="enable-background:new 0 0 28 28;" xml:space="preserve">
<style type="text/css">
	.st0{fill:#404041;}
</style>
<path id="users" class="st0" d="M4.2,15.6c1.7-0.2,3-1.7,2.8-3.4c-0.1-1.5-1.3-2.7-2.8-2.8c-1.7,0.2-3,1.7-2.8,3.4
	C1.6,14.2,2.7,15.4,4.2,15.6z M23.8,15.6c1.7-0.2,3-1.7,2.8-3.4c-0.1-1.5-1.3-2.6-2.8-2.8c-1.7,0.2-3,1.7-2.8,3.4
	C21.2,14.2,22.3,15.4,23.8,15.6z M25.2,17.1h-2.8c-0.8,0-1.5,0.3-2,0.9c1.8,1.2,3.1,3.1,3.3,5.3h2.9c0.8,0,1.4-0.7,1.4-1.5v-1.5
	C28.1,18.6,26.8,17.2,25.2,17.1L25.2,17.1z M14,17.1c2.8-0.1,5-2.6,4.9-5.4C19,8.9,16.8,6.4,14,6.3c-2.8,0.1-5,2.6-4.9,5.4
	C9,14.4,11.2,17,14,17.1L14,17.1z M17.4,18.6H17c-1.9,1-4.1,1-6,0h-0.4c-2.9,0.1-5.2,2.6-5,5.6v1.4c-0.1,1.2,0.9,2.3,2.1,2.3h12.6
	c1.2-0.1,2.2-1.1,2.1-2.3v-1.4C22.5,21.3,20.3,18.8,17.4,18.6L17.4,18.6z M7.6,18c-0.5-0.6-1.2-0.9-2-0.9H2.8
	c-1.6,0.1-2.9,1.5-2.8,3.1v1.5c0,0.8,0.6,1.5,1.4,1.5h2.9C4.5,21.1,5.7,19.2,7.6,18L7.6,18z"/>
</svg>
