<svg xmlns="http://www.w3.org/2000/svg" width="25" height="25" viewBox="0 0 25 25">
  <path id="Path_857" data-name="Path 857" d="M1109.5-140a12.5,12.5,0,0,0,12.5-12.5,12.5,12.5,0,0,0-12.5-12.5,12.5,12.5,0,0,0-12.5,12.5A12.5,12.5,0,0,0,1109.5-140Zm0-1.875a10.625,10.625,0,0,1-10.625-10.625,10.625,10.625,0,0,1,10.625-10.625,10.625,10.625,0,0,1,10.625,10.625A10.625,10.625,0,0,1,1109.5-141.875Zm4.775-6.875,1.475-1.492-6.25-6.321-6.25,6.321,1.475,1.492,4.775-4.854Z" transform="translate(1122 -140) rotate(180)" fill="#666"/>
</svg>
