<svg xmlns="http://www.w3.org/2000/svg" xmlns:xlink="http://www.w3.org/1999/xlink" viewBox="0 0 1429.12 295.51"><defs><style>.cls-1{fill:none;}.cls-2{fill:#fff;}.cls-3{clip-path:url(#clip-path);}.cls-4{clip-path:url(#clip-path-2);}.cls-5{clip-path:url(#clip-path-3);}.cls-6{clip-path:url(#clip-path-4);}.cls-7{clip-path:url(#clip-path-5);}.cls-40,.cls-43,.cls-44,.cls-49,.cls-77,.cls-8,.cls-9{isolation:isolate;}.cls-9{font-size:19px;letter-spacing:0em;}.cls-33,.cls-40,.cls-43,.cls-44,.cls-49,.cls-9{fill:#404041;}.cls-77,.cls-9{font-family:Roboto-Regular, Roboto;}.cls-10{clip-path:url(#clip-path-6);}.cls-11{clip-path:url(#clip-path-7);}.cls-12{clip-path:url(#clip-path-8);}.cls-13{clip-path:url(#clip-path-9);}.cls-14{clip-path:url(#clip-path-10);}.cls-15{clip-path:url(#clip-path-11);}.cls-16{clip-path:url(#clip-path-12);}.cls-17{clip-path:url(#clip-path-13);}.cls-18{clip-path:url(#clip-path-14);}.cls-19{clip-path:url(#clip-path-15);}.cls-20{clip-path:url(#clip-path-16);}.cls-21{clip-path:url(#clip-path-17);}.cls-22{clip-path:url(#clip-path-18);}.cls-23{clip-path:url(#clip-path-19);}.cls-24{clip-path:url(#clip-path-20);}.cls-25{fill:#939393;}.cls-26{clip-path:url(#clip-path-21);}.cls-27{clip-path:url(#clip-path-22);}.cls-28{clip-path:url(#clip-path-23);}.cls-29{fill:#66d6b6;}.cls-30{clip-path:url(#clip-path-24);}.cls-31{fill:#03a678;}.cls-32{clip-path:url(#clip-path-25);}.cls-34{clip-path:url(#clip-path-26);}.cls-35{fill:#fde09a;}.cls-36{clip-path:url(#clip-path-27);}.cls-37{fill:#ffc63e;}.cls-38{clip-path:url(#clip-path-28);}.cls-39{clip-path:url(#clip-path-29);}.cls-40{font-size:21px;}.cls-40,.cls-43,.cls-44,.cls-49{font-family:Roboto-Bold, Roboto;font-weight:700;}.cls-41{letter-spacing:-0.01em;}.cls-42{clip-path:url(#clip-path-30);}.cls-43{font-size:25px;letter-spacing:-0.03em;}.cls-44{font-size:24px;}.cls-45{clip-path:url(#clip-path-31);}.cls-46{clip-path:url(#clip-path-32);}.cls-47{clip-path:url(#clip-path-33);}.cls-48{clip-path:url(#clip-path-34);}.cls-49{font-size:22px;}.cls-50{letter-spacing:-0.01em;}.cls-51{clip-path:url(#clip-path-35);}.cls-52{fill:#f0f0f0;}.cls-53{clip-path:url(#clip-path-36);}.cls-54{clip-path:url(#clip-path-37);}.cls-55{clip-path:url(#clip-path-38);}.cls-56{clip-path:url(#clip-path-39);}.cls-57{clip-path:url(#clip-path-40);}.cls-58{clip-path:url(#clip-path-41);}.cls-59{clip-path:url(#clip-path-42);}.cls-60{clip-path:url(#clip-path-43);}.cls-61{clip-path:url(#clip-path-44);}.cls-62{clip-path:url(#clip-path-45);}.cls-63{clip-path:url(#clip-path-46);}.cls-64{clip-path:url(#clip-path-47);}.cls-65{clip-path:url(#clip-path-48);}.cls-66{clip-path:url(#clip-path-49);}.cls-67{clip-path:url(#clip-path-50);}.cls-68{clip-path:url(#clip-path-51);}.cls-69{clip-path:url(#clip-path-52);}.cls-70{clip-path:url(#clip-path-53);}.cls-71{clip-path:url(#clip-path-54);}.cls-72{clip-path:url(#clip-path-55);}.cls-73{clip-path:url(#clip-path-56);}.cls-74{clip-path:url(#clip-path-57);}.cls-75{clip-path:url(#clip-path-59);}.cls-76{clip-path:url(#clip-path-61);}.cls-77{font-size:16px;fill:#818181;}.cls-78{clip-path:url(#clip-path-62);}</style><clipPath id="clip-path"><rect class="cls-1" x="66.61" y="134.43" width="809.03" height="1.21"/></clipPath><clipPath id="clip-path-2"><rect class="cls-1" x="66.61" y="168.35" width="809.03" height="1.21"/></clipPath><clipPath id="clip-path-3"><rect class="cls-1" x="66.61" y="64.19" width="809.03" height="1.21"/></clipPath><clipPath id="clip-path-4"><rect class="cls-1" x="66.61" y="98.1" width="809.03" height="1.21"/></clipPath><clipPath id="clip-path-5"><rect class="cls-1" x="15.74" y="187.48" width="43.6" height="23.01"/></clipPath><clipPath id="clip-path-6"><rect class="cls-1" x="7.27" y="220.42" width="52.08" height="19.38"/></clipPath><clipPath id="clip-path-7"><rect class="cls-1" x="102.95" y="249.49" width="53.29" height="21.8"/></clipPath><clipPath id="clip-path-8"><rect class="cls-1" x="285.82" y="249.49" width="55.71" height="24.22"/></clipPath><clipPath id="clip-path-9"><rect class="cls-1" x="377.87" y="249.49" width="54.5" height="24.22"/></clipPath><clipPath id="clip-path-10"><rect class="cls-1" x="468.7" y="249.49" width="52.08" height="24.22"/></clipPath><clipPath id="clip-path-11"><rect class="cls-1" x="557.11" y="249.49" width="52.08" height="24.22"/></clipPath><clipPath id="clip-path-12"><rect class="cls-1" x="645.53" y="249.49" width="54.5" height="23.01"/></clipPath><clipPath id="clip-path-13"><rect class="cls-1" x="736.36" y="249.49" width="52.08" height="21.8"/></clipPath><clipPath id="clip-path-14"><rect class="cls-1" x="824.77" y="249.49" width="52.08" height="21.8"/></clipPath><clipPath id="clip-path-15"><rect class="cls-1" x="192.57" y="249.49" width="56.92" height="23.01"/></clipPath><clipPath id="clip-path-16"><rect class="cls-1" x="15.74" y="154.54" width="43.6" height="21.8"/></clipPath><clipPath id="clip-path-17"><rect class="cls-1" x="12.11" y="122.81" width="47.23" height="19.38"/></clipPath><clipPath id="clip-path-18"><rect class="cls-1" x="15.74" y="87.44" width="43.6" height="20.59"/></clipPath><clipPath id="clip-path-19"><rect class="cls-1" x="15.74" y="54.5" width="43.6" height="20.59"/></clipPath><clipPath id="clip-path-20"><rect class="cls-1" x="64.19" y="46.02" width="2.42" height="193.78"/></clipPath><clipPath id="clip-path-21"><rect class="cls-1" x="64.19" y="237.38" width="813.87" height="2.42"/></clipPath><clipPath id="clip-path-22"><rect class="cls-1" x="-279.77" y="-192.57" width="1744.01" height="1240.18"/></clipPath><clipPath id="clip-path-23"><rect class="cls-1" x="1205.06" y="135.65" width="188.93" height="18.17"/></clipPath><clipPath id="clip-path-24"><rect class="cls-1" x="1005.23" y="135.65" width="196.2" height="18.17"/></clipPath><clipPath id="clip-path-25"><rect class="cls-1" x="949.52" y="135.65" width="52.08" height="18.17"/></clipPath><clipPath id="clip-path-26"><rect class="cls-1" x="1179.63" y="216.79" width="214.37" height="18.17"/></clipPath><clipPath id="clip-path-27"><rect class="cls-1" x="978.58" y="216.79" width="197.41" height="18.17"/></clipPath><clipPath id="clip-path-28"><rect class="cls-1" x="950.73" y="216.79" width="24.22" height="18.17"/></clipPath><clipPath id="clip-path-29"><rect class="cls-1" x="949.52" y="178.03" width="95.68" height="26.64"/></clipPath><clipPath id="clip-path-30"><rect class="cls-1" x="949.52" y="31.49" width="255.55" height="27.86"/></clipPath><clipPath id="clip-path-31"><rect class="cls-1" x="1265.62" y="31.49" width="128.38" height="29.07"/></clipPath><clipPath id="clip-path-32"><rect class="cls-1" x="1265.62" y="98.1" width="128.38" height="25.43"/></clipPath><clipPath id="clip-path-33"><rect class="cls-1" x="1265.62" y="178.03" width="128.38" height="26.64"/></clipPath><clipPath id="clip-path-34"><rect class="cls-1" x="949.52" y="98.1" width="127.17" height="23.01"/></clipPath><clipPath id="clip-path-35"><rect class="cls-1" x="949.52" y="72.67" width="444.48" height="1.21"/></clipPath><clipPath id="clip-path-36"><rect class="cls-1" x="914.39" y="25.43" width="2.42" height="242.22"/></clipPath><clipPath id="clip-path-37"><rect class="cls-1" x="115.06" y="94.47" width="18.17" height="142.91"/></clipPath><clipPath id="clip-path-38"><rect class="cls-1" x="133.22" y="148.97" width="18.17" height="88.41"/></clipPath><clipPath id="clip-path-39"><rect class="cls-1" x="203.47" y="118.69" width="18.17" height="118.69"/></clipPath><clipPath id="clip-path-40"><rect class="cls-1" x="221.63" y="139.28" width="18.17" height="98.1"/></clipPath><clipPath id="clip-path-41"><rect class="cls-1" x="295.51" y="158.66" width="18.17" height="78.72"/></clipPath><clipPath id="clip-path-42"><rect class="cls-1" x="313.68" y="148.97" width="18.17" height="88.41"/></clipPath><clipPath id="clip-path-43"><rect class="cls-1" x="387.56" y="170.77" width="18.17" height="66.61"/></clipPath><clipPath id="clip-path-44"><rect class="cls-1" x="405.72" y="106.58" width="18.17" height="130.8"/></clipPath><clipPath id="clip-path-45"><rect class="cls-1" x="477.18" y="207.1" width="18.17" height="30.28"/></clipPath><clipPath id="clip-path-46"><rect class="cls-1" x="495.35" y="225.27" width="18.17" height="12.11"/></clipPath><clipPath id="clip-path-47"><rect class="cls-1" x="565.59" y="118.69" width="18.17" height="118.69"/></clipPath><clipPath id="clip-path-48"><rect class="cls-1" x="583.76" y="161.08" width="18.17" height="76.3"/></clipPath><clipPath id="clip-path-49"><rect class="cls-1" x="655.22" y="155.02" width="18.17" height="82.36"/></clipPath><clipPath id="clip-path-50"><rect class="cls-1" x="673.38" y="147.76" width="18.17" height="89.62"/></clipPath><clipPath id="clip-path-51"><rect class="cls-1" x="744.84" y="161.08" width="18.17" height="76.3"/></clipPath><clipPath id="clip-path-52"><rect class="cls-1" x="763" y="124.75" width="18.17" height="112.63"/></clipPath><clipPath id="clip-path-53"><rect class="cls-1" x="833.25" y="174.4" width="18.17" height="62.98"/></clipPath><clipPath id="clip-path-54"><rect class="cls-1" x="851.42" y="104.16" width="18.17" height="133.22"/></clipPath><clipPath id="clip-path-55"><path class="cls-1" d="M133.22,73.88a3.64,3.64,0,1,0,0-7.27h0a3.64,3.64,0,0,0,0,7.27Z"/></clipPath><clipPath id="clip-path-56"><rect class="cls-1" x="-279.77" y="-192.57" width="1744.01" height="1240.18"/></clipPath><clipPath id="clip-path-57"><path class="cls-1" d="M221.63,111.42a3.63,3.63,0,1,0,0-7.26h0a3.63,3.63,0,1,0,0,7.26Z"/></clipPath><clipPath id="clip-path-59"><path class="cls-1" d="M673.38,129.59a3.64,3.64,0,0,0,0-7.27h0a3.64,3.64,0,0,0,0,7.27Z"/></clipPath><clipPath id="clip-path-61"><rect class="cls-1" x="978.58" y="241.01" width="188.93" height="23.01"/></clipPath><clipPath id="clip-path-62"><rect class="cls-1" x="1179.63" y="241.01" width="214.37" height="23.01"/></clipPath></defs><g id="Layer_2" data-name="Layer 2"><g id="Layer_1-2" data-name="Layer 1"><path class="cls-2" d="M9.69,0H1419.43a9.69,9.69,0,0,1,9.69,9.69V285.82a9.69,9.69,0,0,1-9.69,9.69H9.69A9.69,9.69,0,0,1,0,285.82V9.69A9.69,9.69,0,0,1,9.69,0Z"/><g class="cls-3"><g id="Group_735" data-name="Group 735"><path id="Path_572" data-name="Path 572" d="M60.56,128.38H881.69V141.7H60.56Z"/></g></g><g class="cls-4"><g id="Group_736" data-name="Group 736"><path id="Path_574" data-name="Path 574" d="M60.56,162.29H881.69v13.32H60.56Z"/></g></g><g class="cls-5"><g id="Group_737" data-name="Group 737"><path id="Path_576" data-name="Path 576" d="M60.56,58.13H881.69V71.46H60.56Z"/></g></g><g class="cls-6"><g id="Group_738" data-name="Group 738"><path id="Path_578" data-name="Path 578" d="M60.56,92H881.69v13.33H60.56Z"/></g></g><g class="cls-7"><g id="Group_740" data-name="Group 740"><g id="Group_739" data-name="Group 739"><g id="_0" data-name=" 0" class="cls-8"><text class="cls-9" transform="translate(37.58 207.9)">$0</text></g></g></g></g><g class="cls-10"><g id="Group_742" data-name="Group 742"><g id="Group_741" data-name="Group 741"><g id="_-10k" data-name=" -10k" class="cls-8"><text class="cls-9" transform="translate(11.53 237.21)">$-10k</text></g></g></g></g><g class="cls-11"><g id="Group_744" data-name="Group 744"><g id="Group_743" data-name="Group 743"><g id="_03_27" data-name=" 03 27" class="cls-8"><text class="cls-9" transform="translate(103.83 267.49)">03/27</text></g></g></g></g><g class="cls-12"><g id="Group_746" data-name="Group 746"><g id="Group_745" data-name="Group 745"><g id="_04_10" data-name=" 04 10" class="cls-8"><text class="cls-9" transform="translate(287.93 267.49)">04/10</text></g></g></g></g><g class="cls-13"><g id="Group_748" data-name="Group 748"><g id="Group_747" data-name="Group 747"><g id="_04_17" data-name=" 04 17" class="cls-8"><text class="cls-9" transform="translate(379.36 267.49)">04/17</text></g></g></g></g><g class="cls-14"><g id="Group_750" data-name="Group 750"><g id="Group_749" data-name="Group 749"><g id="_04_24" data-name=" 04 24" class="cls-8"><text class="cls-9" transform="translate(468.99 267.49)">04/24</text></g></g></g></g><g class="cls-15"><g id="Group_752" data-name="Group 752"><g id="Group_751" data-name="Group 751"><g id="_05_01" data-name=" 05 01" class="cls-8"><text class="cls-9" transform="translate(557.4 267.49)">05/01</text></g></g></g></g><g class="cls-16"><g id="Group_754" data-name="Group 754"><g id="Group_753" data-name="Group 753"><g id="_05_08" data-name=" 05 08" class="cls-8"><text class="cls-9" transform="translate(647.02 267.49)">05/08</text></g></g></g></g><g class="cls-17"><g id="Group_756" data-name="Group 756"><g id="Group_755" data-name="Group 755"><g id="_05_15" data-name=" 05 15" class="cls-8"><text class="cls-9" transform="translate(736.64 267.49)">05/15</text></g></g></g></g><g class="cls-18"><g id="Group_758" data-name="Group 758"><g id="Group_757" data-name="Group 757"><g id="_05_22" data-name=" 05 22" class="cls-8"><text class="cls-9" transform="translate(825.06 267.49)">05/22</text></g></g></g></g><g class="cls-19"><g id="Group_760" data-name="Group 760"><g id="Group_759" data-name="Group 759"><g id="_04_03" data-name=" 04 03" class="cls-8"><text class="cls-9" transform="translate(195.27 267.49)">04/03</text></g></g></g></g><g class="cls-20"><g id="Group_762" data-name="Group 762"><g id="Group_761" data-name="Group 761"><g id="_10k" data-name=" 10k" class="cls-8"><text class="cls-9" transform="translate(16.88 172.54)">$10k</text></g></g></g></g><g class="cls-21"><g id="Group_764" data-name="Group 764"><g id="Group_763" data-name="Group 763"><g id="_20k" data-name=" 20k" class="cls-8"><text class="cls-9" transform="translate(16.88 139.6)">$20k</text></g></g></g></g><g class="cls-22"><g id="Group_766" data-name="Group 766"><g id="Group_765" data-name="Group 765"><g id="_30k" data-name=" 30k" class="cls-8"><text class="cls-9" transform="translate(16.88 104.23)">$30k</text></g></g></g></g><g class="cls-23"><g id="Group_768" data-name="Group 768"><g id="Group_767" data-name="Group 767"><g id="_40k" data-name=" 40k" class="cls-8"><text class="cls-9" transform="translate(16.88 71.29)">$40k</text></g></g></g></g><g class="cls-24"><g id="Group_769" data-name="Group 769"><path id="Path_595" data-name="Path 595" class="cls-25" d="M58.13,40H72.67V245.86H58.13Z"/></g></g><g class="cls-26"><g id="Group_771" data-name="Group 771"><g class="cls-27"><g id="Group_770" data-name="Group 770"><path id="Path_597" data-name="Path 597" class="cls-25" d="M884.12,231.32v14.54h-826V231.32Z"/></g></g></g></g><g class="cls-28"><g id="Group_772" data-name="Group 772"><path id="Path_600" data-name="Path 600" class="cls-29" d="M1199,129.59h201v30.28H1199Z"/></g></g><g class="cls-30"><g id="Group_773" data-name="Group 773"><path id="Path_602" data-name="Path 602" class="cls-31" d="M999.17,129.59h208.31v30.28H999.17Z"/></g></g><g class="cls-32"><g id="Group_774" data-name="Group 774"><path id="Path_604" data-name="Path 604" class="cls-33" d="M943.46,129.59h64.19v30.28H943.46Z"/></g></g><g class="cls-34"><g id="Group_775" data-name="Group 775"><path id="Path_606" data-name="Path 606" class="cls-35" d="M1173.57,210.73h226.48V241H1173.57Z"/></g></g><g class="cls-36"><g id="Group_776" data-name="Group 776"><path id="Path_608" data-name="Path 608" class="cls-37" d="M972.53,210.73h209.52V241H972.53Z"/></g></g><g class="cls-38"><g id="Group_777" data-name="Group 777"><path id="Path_610" data-name="Path 610" class="cls-33" d="M944.67,210.73H981V241H944.67Z"/></g></g><g class="cls-39"><g id="Group_779" data-name="Group 779"><g id="Group_778" data-name="Group 778"><g id="Payables" class="cls-8"><text class="cls-40" transform="translate(949.52 196.73)"><tspan class="cls-41">P</tspan><tspan x="13.43" y="0">ayables</tspan></text></g></g></g></g><g class="cls-42"><g id="Group_781" data-name="Group 781"><g id="Group_780" data-name="Group 780"><g id="Group"><g id="T" class="cls-8"><text class="cls-43" transform="translate(949.52 54.73)">T</text></g><g id="otal_Account_Balance:" data-name="otal Account Balance:" class="cls-8"><text class="cls-44" transform="translate(962.33 53.49)">otal Account Balance:</text></g></g></g></g></g><g class="cls-45"><g id="Group_783" data-name="Group 783"><g id="Group_782" data-name="Group 782"><g id="_24_050.00" data-name=" 24 050.00" class="cls-8"><text class="cls-44" transform="translate(1267.93 53.49)">$24,050.00</text></g></g></g></g><g class="cls-46"><g id="Group_785" data-name="Group 785"><g id="Group_784" data-name="Group 784"><g id="_18_440.00" data-name=" 18 440.00" class="cls-8"><text class="cls-40" transform="translate(1282.28 117.1)">$18,440.00</text></g></g></g></g><g class="cls-47"><g id="Group_787" data-name="Group 787"><g id="Group_786" data-name="Group 786"><g id="_36_225.00" data-name=" 36 225.00" class="cls-8"><text class="cls-40" transform="translate(1282.28 197.03)">$36,225.00</text></g></g></g></g><g class="cls-48"><g id="Group_789" data-name="Group 789"><g id="Group_788" data-name="Group 788"><g id="Receivables" class="cls-8"><text class="cls-49" transform="translate(949.52 117.73)">Recei<tspan class="cls-50" x="55.13" y="0">v</tspan><tspan x="66.09" y="0">ables</tspan></text></g></g></g></g><g class="cls-51"><g id="Group_790" data-name="Group 790"><path id="Path_618" data-name="Path 618" class="cls-52" d="M943.46,66.61h456.59V79.93H943.46Z"/></g></g><g class="cls-53"><g id="Group_791" data-name="Group 791"><path id="Path_620" data-name="Path 620" class="cls-52" d="M908.34,19.38h14.53V273.71H908.34Z"/></g></g><g class="cls-54"><g id="Group_792" data-name="Group 792"><path id="Path_622" data-name="Path 622" class="cls-31" d="M109,88.41h30.28v155H109Z"/></g></g><g class="cls-55"><g id="Group_793" data-name="Group 793"><path id="Path_624" data-name="Path 624" class="cls-37" d="M127.17,142.91h30.28V243.43H127.17Z"/></g></g><g class="cls-56"><g id="Group_794" data-name="Group 794"><path id="Path_626" data-name="Path 626" class="cls-31" d="M197.41,112.63h30.28v130.8H197.41Z"/></g></g><g class="cls-57"><g id="Group_795" data-name="Group 795"><path id="Path_628" data-name="Path 628" class="cls-37" d="M215.58,133.22h30.28V243.43H215.58Z"/></g></g><g class="cls-58"><g id="Group_796" data-name="Group 796"><path id="Path_630" data-name="Path 630" class="cls-31" d="M289.46,152.6h30.28v90.83H289.46Z"/></g></g><g class="cls-59"><g id="Group_797" data-name="Group 797"><path id="Path_632" data-name="Path 632" class="cls-37" d="M307.62,142.91H337.9V243.43H307.62Z"/></g></g><g class="cls-60"><g id="Group_798" data-name="Group 798"><path id="Path_634" data-name="Path 634" class="cls-31" d="M381.5,164.71h30.28v78.72H381.5Z"/></g></g><g class="cls-61"><g id="Group_799" data-name="Group 799"><path id="Path_636" data-name="Path 636" class="cls-37" d="M399.67,100.52H430V243.43H399.67Z"/></g></g><g class="cls-62"><g id="Group_800" data-name="Group 800"><path id="Path_638" data-name="Path 638" class="cls-31" d="M471.12,201.05H501.4v42.38H471.12Z"/></g></g><g class="cls-63"><g id="Group_801" data-name="Group 801"><path id="Path_640" data-name="Path 640" class="cls-37" d="M489.29,219.21h30.28v24.22H489.29Z"/></g></g><g class="cls-64"><g id="Group_802" data-name="Group 802"><path id="Path_642" data-name="Path 642" class="cls-31" d="M559.54,112.63h30.27v130.8H559.54Z"/></g></g><g class="cls-65"><g id="Group_803" data-name="Group 803"><path id="Path_644" data-name="Path 644" class="cls-37" d="M577.7,155H608v88.41H577.7Z"/></g></g><g class="cls-66"><g id="Group_804" data-name="Group 804"><path id="Path_646" data-name="Path 646" class="cls-31" d="M649.16,149h30.28v94.46H649.16Z"/></g></g><g class="cls-67"><g id="Group_805" data-name="Group 805"><path id="Path_648" data-name="Path 648" class="cls-37" d="M667.33,141.7H697.6V243.43H667.33Z"/></g></g><g class="cls-68"><g id="Group_806" data-name="Group 806"><path id="Path_650" data-name="Path 650" class="cls-31" d="M738.78,155h30.28v88.41H738.78Z"/></g></g><g class="cls-69"><g id="Group_807" data-name="Group 807"><path id="Path_652" data-name="Path 652" class="cls-37" d="M757,118.69h30.28V243.43H757Z"/></g></g><g class="cls-70"><g id="Group_808" data-name="Group 808"><path id="Path_654" data-name="Path 654" class="cls-31" d="M827.19,168.35h30.28v75.08H827.19Z"/></g></g><g class="cls-71"><g id="Group_809" data-name="Group 809"><path id="Path_656" data-name="Path 656" class="cls-37" d="M845.36,98.1h30.28V243.43H845.36Z"/></g></g><g class="cls-72"><g id="Group_813" data-name="Group 813"><g class="cls-73"><g id="Group_812" data-name="Group 812"><path id="Path_660" data-name="Path 660" class="cls-2" d="M123.53,60.56h19.38V79.93H123.53Z"/></g></g></g></g><g class="cls-74"><g id="Group_817" data-name="Group 817"><g class="cls-27"><g id="Group_816" data-name="Group 816"><path id="Path_665" data-name="Path 665" class="cls-2" d="M212,98.1h19.37v19.38H212Z"/></g></g></g></g><g class="cls-75"><g id="Group_837" data-name="Group 837"><g class="cls-27"><g id="Group_836" data-name="Group 836"><path id="Path_690" data-name="Path 690" class="cls-2" d="M663.69,116.27h19.38v19.38H663.69Z"/></g></g></g></g><g class="cls-76"><g id="Group_849" data-name="Group 849"><g id="Group_848" data-name="Group 848"><g id="Scheduled_-_19_210.00" data-name="Scheduled - 19 210.00" class="cls-8"><text class="cls-77" transform="translate(978.52 255.73)">Scheduled - $19,210.00</text></g></g></g></g><g class="cls-78"><g id="Group_851" data-name="Group 851"><g id="Group_850" data-name="Group 850"><g id="Unscheduled_-_17_015.00" data-name="Unscheduled - 17 015.00" class="cls-8"><text class="cls-77" transform="translate(1179.52 255.73)">Unscheduled - $17,015.00</text></g></g></g></g></g></g></svg>