<?xml version="1.0" encoding="utf-8"?>
<!-- Generator: Adobe Illustrator 24.3.0, SVG Export Plug-In . SVG Version: 6.00 Build 0)  -->
<svg version="1.1" id="Layer_1" xmlns="http://www.w3.org/2000/svg" xmlns:xlink="http://www.w3.org/1999/xlink" x="0px" y="0px"
	 viewBox="0 0 28 28" style="enable-background:new 0 0 28 28;" xml:space="preserve">
<style type="text/css">
	.st0{fill:#0574B0;}
</style>
<path id="home" class="st0" d="M13.6,10.6l-9,8v8.6c0,0.4,0.3,0.8,0.8,0.8h5.4c0.4,0,0.8-0.4,0.8-0.8v-5c0-0.4,0.3-0.8,0.8-0.8h3.1
	c0.4,0,0.8,0.4,0.8,0.8v5c0,0.2,0.1,0.4,0.2,0.6s0.3,0.2,0.6,0.2h5.4c0.4,0,0.8-0.4,0.8-0.8v-8.6l-9-8
	C14.2,10.5,13.8,10.5,13.6,10.6L13.6,10.6z M27.8,16.1l-4.1-3.6V5.2c0-0.3-0.2-0.6-0.6-0.6l0,0h-2.7c-0.3,0-0.6,0.3-0.6,0.6l0,0V9
	l-4.4-3.9c-0.8-0.8-2.1-0.8-3,0l-12.2,11c-0.2,0.2-0.3,0.6-0.1,0.8l1.2,1.6c0.1,0.1,0.2,0.2,0.4,0.2s0.3,0,0.4-0.1L13.6,8.5
	c0.2-0.2,0.5-0.2,0.7,0l11.4,10.2c0.2,0.2,0.6,0.2,0.8,0l0,0l1.2-1.6c0.1-0.1,0.1-0.3,0.1-0.5C28,16.3,27.9,16.2,27.8,16.1
	L27.8,16.1z"/>
</svg>
