<svg xmlns="http://www.w3.org/2000/svg" viewBox="0 0 397.51 94.21"><defs><style>.cls-1{fill:#fff;}</style></defs><g id="Layer_2" data-name="Layer 2"><g id="Layer_1-2" data-name="Layer 1"><path class="cls-1" d="M132.39,11.22l18.43,52.05,18.33-52h19.42V83H173.74V63.37l1.48-33.86L155.85,83H145.69L126.37,29.56l1.48,33.81V83H113.06V11.22Z"/><path class="cls-1" d="M231.45,83A16.25,16.25,0,0,1,230,78.2,17.21,17.21,0,0,1,216.57,84a18.94,18.94,0,0,1-13-4.53A14.62,14.62,0,0,1,198.43,68q0-8.47,6.29-13t18.16-4.58h6.55V47.35a8.79,8.79,0,0,0-1.89-5.91q-1.9-2.22-6-2.22a8.51,8.51,0,0,0-5.65,1.72,5.87,5.87,0,0,0-2,4.73H199.61a14.35,14.35,0,0,1,2.86-8.57,18.94,18.94,0,0,1,8.09-6.19,29.52,29.52,0,0,1,11.73-2.24q9.86,0,15.65,4.95t5.79,13.93V70.66q0,7.59,2.12,11.49V83Zm-11.78-9.91a12.21,12.21,0,0,0,5.82-1.41,9.16,9.16,0,0,0,3.94-3.77V58.74h-5.32q-10.7,0-11.39,7.39l0,.84a5.69,5.69,0,0,0,1.87,4.38A7.28,7.28,0,0,0,219.67,73.08Z"/><path class="cls-1" d="M271.72,16.55V29.66h9.12V40.11h-9.12V66.72A6.33,6.33,0,0,0,272.86,71c.75.85,2.2,1.28,4.33,1.28a22.69,22.69,0,0,0,4.19-.34V82.69A29.45,29.45,0,0,1,272.76,84q-15,0-15.28-15.13V40.11h-7.79V29.66h7.79V16.55Z"/><path class="cls-1" d="M318.74,43a39,39,0,0,0-5.12-.39q-8.08,0-10.6,5.47V83H288.78V29.66h13.45l.4,6.35q4.28-7.33,11.87-7.34a14.85,14.85,0,0,1,4.44.64Z"/><path class="cls-1" d="M325.5,15.86a7,7,0,0,1,2.14-5.28,9.24,9.24,0,0,1,11.66,0,7,7,0,0,1,2.16,5.28,7,7,0,0,1-2.19,5.32,9.13,9.13,0,0,1-11.58,0A7,7,0,0,1,325.5,15.86ZM340.63,83h-14.3V29.66h14.3Z"/><path class="cls-1" d="M372.66,45.58l9-15.92h15.23L381.68,55.78,397.51,83H382.23l-9.52-16.76L363.25,83H347.92l15.82-27.21L348.61,29.66h15.28Z"/><path class="cls-1" d="M81.76,0H12.45A12.44,12.44,0,0,0,0,12.45V81.76A12.45,12.45,0,0,0,12.45,94.21H81.76A12.46,12.46,0,0,0,94.21,81.76V12.45A12.45,12.45,0,0,0,81.76,0ZM28.23,86.9H9.36L35.58,50,45,63.3ZM66,86.9,9.36,7.31H28.23L84.85,86.9ZM58.62,44.18,49.19,30.91,66,7.31H84.85Z"/></g></g></svg>