<svg xmlns="http://www.w3.org/2000/svg" xmlns:xlink="http://www.w3.org/1999/xlink" width="33" height="20" viewBox="0 0 33 20">
  <defs>
    <clipPath id="clip-path">
      <path id="Path_758" data-name="Path 758" d="M57.35-92H27.65A1.659,1.659,0,0,0,26-90.333v16.667A1.659,1.659,0,0,0,27.65-72h29.7A1.659,1.659,0,0,0,59-73.667V-90.333A1.659,1.659,0,0,0,57.35-92ZM28.474-74.5v-3.333a3.282,3.282,0,0,1,2.334.976,3.351,3.351,0,0,1,.966,2.358Zm0-11.669V-89.5h3.3a3.351,3.351,0,0,1-.966,2.358,3.282,3.282,0,0,1-2.334.976ZM42.5-77c-2.278,0-4.125-2.239-4.125-5s1.846-5,4.125-5,4.125,2.238,4.125,5S44.774-77,42.5-77Zm14.024,2.5h-3.3a3.351,3.351,0,0,1,.966-2.358,3.282,3.282,0,0,1,2.334-.976Zm0-11.669a3.282,3.282,0,0,1-2.334-.976,3.351,3.351,0,0,1-.966-2.358h3.3Z" fill="#03a678"/>
    </clipPath>
    <clipPath id="clip-path-2">
      <path id="Path_757" data-name="Path 757" d="M-222,375H1218V-649H-222Z" fill="#03a678"/>
    </clipPath>
  </defs>
  <g id="Group_905" data-name="Group 905" transform="translate(-26 92)" clip-path="url(#clip-path)">
    <g id="Group_904" data-name="Group 904" clip-path="url(#clip-path-2)">
      <path id="Path_756" data-name="Path 756" d="M21-97H64v30H21Z" fill="#03a678"/>
    </g>
  </g>
</svg>
