<svg xmlns="http://www.w3.org/2000/svg" width="24.412" height="28.042" viewBox="0 0 24.412 28.042">
  <g id="Group_723" data-name="Group 723" transform="translate(-3.961 -3.063)">
    <path id="Path_537" data-name="Path 537" d="M12.042,18.979a4.041,4.041,0,0,0,4.042-4.042H8A4.041,4.041,0,0,0,12.042,18.979Z" transform="translate(4.125 12.126)" fill="#fff"/>
    <path id="Path_538" data-name="Path 538" d="M28.013,22.546c-2.656-2.244-3.947-5.653-3.947-10.423a7.285,7.285,0,0,0-5.93-6.781,1.865,1.865,0,0,0,.053-.257,2.021,2.021,0,0,0-4.042,0,1.865,1.865,0,0,0,.053.257,7.285,7.285,0,0,0-5.93,6.781c0,4.77-1.292,8.18-3.947,10.423a1,1,0,0,0-.36.772A2.736,2.736,0,0,0,6.694,26.05H25.641a2.736,2.736,0,0,0,2.733-2.733A1,1,0,0,0,28.013,22.546Z" transform="translate(0 0)" fill="#fff"/>
  </g>
</svg>
