<?xml version="1.0" encoding="utf-8"?>
<!-- Generator: Adobe Illustrator 24.3.0, SVG Export Plug-In . SVG Version: 6.00 Build 0)  -->
<svg version="1.1" id="Layer_1" xmlns="http://www.w3.org/2000/svg" xmlns:xlink="http://www.w3.org/1999/xlink" x="0px" y="0px"
	 viewBox="0 0 28 28" style="enable-background:new 0 0 28 28;" xml:space="preserve">
<style type="text/css">
	.st0{fill:#404041;}
</style>
<path id="file-invoice-dollar" class="st0" d="M24.4,6.4l-5.5-5.2C18.6,1,18.3,0.8,18,0.8h-0.3v6.8h7.2V7.3
	C24.7,6.9,24.6,6.6,24.4,6.4z M15.8,8V0.8H4.6c-0.7,0-1.3,0.6-1.3,1.3l0,0v24.6c0,0.7,0.6,1.3,1.3,1.3l0,0h18.8
	c0.7,0,1.3-0.5,1.3-1.3l0,0V9.3h-7.6C16.4,9.3,15.8,8.8,15.8,8z M6.8,4.6c0-0.2,0.2-0.4,0.5-0.4h4.5c0.2,0,0.4,0.2,0.4,0.4l0,0v0.8
	c0,0.2-0.2,0.4-0.4,0.4l0,0H7.3C7,5.9,6.8,5.7,6.8,5.5l0,0V4.6z M6.8,8.9V8c0-0.2,0.2-0.4,0.4-0.4l0,0h4.5c0.2,0,0.4,0.2,0.4,0.4
	l0,0v0.8c0,0.2-0.2,0.4-0.4,0.4l0,0H7.3C7,9.3,6.8,9.1,6.8,8.9z M14.9,22.9v1.3c0,0.2-0.2,0.4-0.4,0.4l0,0h-0.9
	c-0.2,0-0.4-0.2-0.4-0.4l0,0v-1.3c-0.6,0-1.2-0.2-1.8-0.6c-0.2-0.1-0.2-0.4-0.1-0.6c0,0,0,0,0.1-0.1l0.7-0.6c0.2-0.1,0.4-0.2,0.6,0
	c0.2,0.1,0.5,0.2,0.7,0.2H15c0.4,0,0.7-0.3,0.7-0.7c0-0.3-0.2-0.6-0.5-0.7l-2.5-0.7c-1.3-0.3-2-1.6-1.7-2.9c0.3-1,1.2-1.8,2.3-1.8
	v-1.3c0-0.2,0.2-0.4,0.4-0.4l0,0h0.9c0.2,0,0.4,0.2,0.4,0.4l0,0v1.3c0.6,0,1.2,0.2,1.8,0.6c0.2,0.1,0.2,0.4,0.1,0.6c0,0,0,0-0.1,0.1
	L16,16.3c-0.2,0.1-0.4,0.2-0.6,0c-0.2-0.1-0.5-0.2-0.7-0.2h-1.6c-0.4,0-0.7,0.3-0.7,0.7c0,0.3,0.2,0.6,0.5,0.7l2.5,0.7
	c1.3,0.3,2,1.6,1.7,2.9C16.9,22.2,16,22.9,14.9,22.9L14.9,22.9z"/>
</svg>
