<?xml version="1.0" encoding="utf-8"?>
<!-- Generator: Adobe Illustrator 24.3.0, SVG Export Plug-In . SVG Version: 6.00 Build 0)  -->
<svg version="1.1" id="Layer_1" xmlns="http://www.w3.org/2000/svg" xmlns:xlink="http://www.w3.org/1999/xlink" x="0px" y="0px"
	 viewBox="0 0 28 28" style="enable-background:new 0 0 28 28;" xml:space="preserve">
<style type="text/css">
	.st0{fill:#404041;}
</style>
<path id="chart-bar" class="st0" d="M18.1,21.2h2c0.4,0,0.7-0.3,0.7-0.7v-7.1c0-0.4-0.3-0.7-0.7-0.7h-2c-0.4,0-0.7,0.3-0.7,0.7v7.2
	C17.4,20.9,17.7,21.2,18.1,21.2z M23.2,21.2h2c0.4,0,0.7-0.3,0.7-0.7V8.2c0-0.4-0.3-0.7-0.7-0.7h-2c-0.4,0-0.7,0.3-0.7,0.7v12.3
	C22.6,20.9,22.8,21.2,23.2,21.2L23.2,21.2z M7.9,21.2h2c0.4,0,0.7-0.3,0.7-0.7v-3.7c0-0.4-0.3-0.7-0.7-0.7h-2
	c-0.4,0-0.7,0.3-0.7,0.7v3.8C7.2,20.9,7.5,21.2,7.9,21.2z M13,21.2h2c0.4,0,0.7-0.3,0.7-0.7V10c0-0.4-0.3-0.7-0.7-0.7h-2
	c-0.4,0-0.7,0.3-0.7,0.7v10.6C12.3,20.9,12.6,21.2,13,21.2z M26.8,24.6h-23V8.4c0-0.5-0.4-0.9-0.8-0.9l0,0H1.2
	c-0.5,0-0.9,0.4-0.9,0.9v17.9C0.3,27.2,1.1,28,2,28l0,0h24.7c0.5,0,0.9-0.4,0.9-0.9v-1.7C27.6,25,27.3,24.6,26.8,24.6L26.8,24.6z"/>
</svg>
