<svg id="Component_28_1" data-name="Component 28 – 1" xmlns="http://www.w3.org/2000/svg" width="28.041" height="28.042" viewBox="0 0 28.041 28.042">
  <path id="Path_539" data-name="Path 539" d="M31.823,17.129a3.387,3.387,0,0,0-2.63-2.671,1.558,1.558,0,0,1-1.1-.774,1.693,1.693,0,0,1,.192-1.38,4.272,4.272,0,0,0,.529-1.6,3.441,3.441,0,0,0-1.458-3.152,3.566,3.566,0,0,0-3.6-.231c-.858.412-1.335.522-1.65.389s-.565-.543-.87-1.422a3.326,3.326,0,0,0-2.832-2.394,2.657,2.657,0,0,0-.38-.018h-.266a3.088,3.088,0,0,0-.38.016,3.332,3.332,0,0,0-2.832,2.4c-.3.879-.556,1.291-.87,1.422s-.794.023-1.65-.389a3.566,3.566,0,0,0-3.6.231A3.441,3.441,0,0,0,6.976,10.7a4.272,4.272,0,0,0,.529,1.6,1.693,1.693,0,0,1,.192,1.38,1.558,1.558,0,0,1-1.1.774,3.387,3.387,0,0,0-2.633,2.671,3.315,3.315,0,0,0,1.234,3.5,4.354,4.354,0,0,0,1.433.689,1.581,1.581,0,0,1,1.085.822,1.5,1.5,0,0,1-.2,1.277,3.517,3.517,0,0,0-.128,3.635,3.458,3.458,0,0,0,4.718,1.369c.078-.039.151-.08.227-.121a3.041,3.041,0,0,1,.323-.163,1.31,1.31,0,0,1,1.074-.014,1.349,1.349,0,0,1,.68.858l.057.183a5.456,5.456,0,0,0,.355.948,3.406,3.406,0,0,0,3.015,1.8h.105a3.41,3.41,0,0,0,3.024-1.8,5.456,5.456,0,0,0,.355-.948l.057-.185a1.35,1.35,0,0,1,.68-.856,1.328,1.328,0,0,1,1.074.011,3.567,3.567,0,0,1,.323.165c.076.041.149.082.224.121a3.465,3.465,0,0,0,4.72-1.369,3.517,3.517,0,0,0-.128-3.635,1.5,1.5,0,0,1-.2-1.277,1.581,1.581,0,0,1,1.085-.822,4.391,4.391,0,0,0,1.435-.689A3.317,3.317,0,0,0,31.823,17.129ZM17.9,23.333A5.437,5.437,0,1,1,23.333,17.9,5.442,5.442,0,0,1,17.9,23.333Z" transform="translate(-3.875 -3.875)" fill="#fff"/>
</svg>
